{
    "asset" : {
        "generator" : "Khronos glTF Blender I/O v1.6.16",
        "version" : "2.0"
    },
    "scene" : 0,
    "scenes" : [
        {
            "name" : "Scene",
            "nodes" : [
                0,
                1,
                2
            ]
        }
    ],
    "nodes" : [
        {
            "name" : "Light",
            "rotation" : [
                0.16907575726509094,
                0.7558803558349609,
                -0.27217137813568115,
                0.570947527885437
            ],
            "translation" : [
                4.076245307922363,
                5.903861999511719,
                -1.0054539442062378
            ]
        },
        {
            "name" : "Camera",
            "rotation" : [
                0.483536034822464,
                0.33687159419059753,
                -0.20870360732078552,
                0.7804827094078064
            ],
            "translation" : [
                7.358891487121582,
                4.958309173583984,
                6.925790786743164
            ]
        },
        {
            "mesh" : 0,
            "name" : "black",
            "rotation" : [
                0.7071068286895752,
                0,
                0,
                0.7071067094802856
            ],
            "scale" : [
                0.016149047762155533,
                0.08518686890602112,
                0.004672729875892401
            ],
            "translation" : [
                27.4011173248291,
                8.591127395629883,
                4.194832801818848
            ]
        }
    ],
    "materials" : [
        {
            "doubleSided" : true,
            "name" : "base",
            "pbrMetallicRoughness" : {
                "baseColorFactor" : [
                    0.6791391372680664,
                    0.34169140458106995,
                    0.22485627233982086,
                    1
                ],
                "metallicFactor" : 0
            }
        },
        {
            "doubleSided" : true,
            "name" : "brown",
            "pbrMetallicRoughness" : {
                "baseColorFactor" : [
                    0.24227552115917206,
                    0.028148191049695015,
                    0.02015172876417637,
                    1
                ],
                "metallicFactor" : 0
            }
        },
        {
            "doubleSided" : true,
            "name" : "Material.001",
            "pbrMetallicRoughness" : {
                "metallicFactor" : 0
            }
        },
        {
            "doubleSided" : true,
            "name" : "stairs",
            "pbrMetallicRoughness" : {
                "baseColorFactor" : [
                    0.34932607412338257,
                    0.34932607412338257,
                    0.34932607412338257,
                    1
                ],
                "metallicFactor" : 0
            }
        },
        {
            "doubleSided" : true,
            "name" : "Material.004",
            "pbrMetallicRoughness" : {
                "baseColorFactor" : [
                    0,
                    0,
                    0,
                    1
                ],
                "metallicFactor" : 0,
                "roughnessFactor" : 0.5
            }
        },
        {
            "doubleSided" : true,
            "name" : "Material.003",
            "pbrMetallicRoughness" : {
                "baseColorFactor" : [
                    0.10394974052906036,
                    0.11086627840995789,
                    0.216519296169281,
                    1
                ],
                "metallicFactor" : 0.7475728392601013,
                "roughnessFactor" : 0
            }
        }
    ],
    "meshes" : [
        {
            "name" : "building_004_mesh",
            "primitives" : [
                {
                    "attributes" : {
                        "POSITION" : 0,
                        "NORMAL" : 1,
                        "TEXCOORD_0" : 2
                    },
                    "indices" : 3,
                    "material" : 0
                },
                {
                    "attributes" : {
                        "POSITION" : 4,
                        "NORMAL" : 5,
                        "TEXCOORD_0" : 6
                    },
                    "indices" : 7,
                    "material" : 1
                },
                {
                    "attributes" : {
                        "POSITION" : 8,
                        "NORMAL" : 9,
                        "TEXCOORD_0" : 10
                    },
                    "indices" : 11,
                    "material" : 2
                },
                {
                    "attributes" : {
                        "POSITION" : 12,
                        "NORMAL" : 13,
                        "TEXCOORD_0" : 14
                    },
                    "indices" : 15,
                    "material" : 3
                },
                {
                    "attributes" : {
                        "POSITION" : 16,
                        "NORMAL" : 17,
                        "TEXCOORD_0" : 18
                    },
                    "indices" : 19,
                    "material" : 4
                },
                {
                    "attributes" : {
                        "POSITION" : 20,
                        "NORMAL" : 21,
                        "TEXCOORD_0" : 22
                    },
                    "indices" : 23,
                    "material" : 5
                }
            ]
        }
    ],
    "accessors" : [
        {
            "bufferView" : 0,
            "componentType" : 5126,
            "count" : 1437,
            "max" : [
                606.7139892578125,
                266.83721923828125,
                880.869384765625
            ],
            "min" : [
                -516.5465087890625,
                -153.34295654296875,
                -1205.9652099609375
            ],
            "type" : "VEC3"
        },
        {
            "bufferView" : 1,
            "componentType" : 5126,
            "count" : 1437,
            "type" : "VEC3"
        },
        {
            "bufferView" : 2,
            "componentType" : 5126,
            "count" : 1437,
            "type" : "VEC2"
        },
        {
            "bufferView" : 3,
            "componentType" : 5123,
            "count" : 2676,
            "type" : "SCALAR"
        },
        {
            "bufferView" : 4,
            "componentType" : 5126,
            "count" : 7069,
            "max" : [
                2278.135986328125,
                414.8160095214844,
                876.9727783203125
            ],
            "min" : [
                -517.0103149414062,
                -178.78262329101562,
                -1238.3814697265625
            ],
            "type" : "VEC3"
        },
        {
            "bufferView" : 5,
            "componentType" : 5126,
            "count" : 7069,
            "type" : "VEC3"
        },
        {
            "bufferView" : 6,
            "componentType" : 5126,
            "count" : 7069,
            "type" : "VEC2"
        },
        {
            "bufferView" : 7,
            "componentType" : 5123,
            "count" : 21252,
            "type" : "SCALAR"
        },
        {
            "bufferView" : 8,
            "componentType" : 5126,
            "count" : 192,
            "max" : [
                605.7864379882812,
                38.67815017700195,
                867.8402709960938
            ],
            "min" : [
                -111.70967864990234,
                -79.41911315917969,
                -753.3572998046875
            ],
            "type" : "VEC3"
        },
        {
            "bufferView" : 9,
            "componentType" : 5126,
            "count" : 192,
            "type" : "VEC3"
        },
        {
            "bufferView" : 10,
            "componentType" : 5126,
            "count" : 192,
            "type" : "VEC2"
        },
        {
            "bufferView" : 11,
            "componentType" : 5123,
            "count" : 288,
            "type" : "SCALAR"
        },
        {
            "bufferView" : 12,
            "componentType" : 5126,
            "count" : 1247,
            "max" : [
                2246.735107421875,
                407.8133544921875,
                781.53759765625
            ],
            "min" : [
                939.6888427734375,
                -171.4740753173828,
                -74.32503509521484
            ],
            "type" : "VEC3"
        },
        {
            "bufferView" : 13,
            "componentType" : 5126,
            "count" : 1247,
            "type" : "VEC3"
        },
        {
            "bufferView" : 14,
            "componentType" : 5126,
            "count" : 1247,
            "type" : "VEC2"
        },
        {
            "bufferView" : 15,
            "componentType" : 5123,
            "count" : 4788,
            "type" : "SCALAR"
        },
        {
            "bufferView" : 16,
            "componentType" : 5126,
            "count" : 5846,
            "max" : [
                465.7366638183594,
                -70.90143585205078,
                171.0800018310547
            ],
            "min" : [
                51.61211395263672,
                -71.55497741699219,
                33.91499328613281
            ],
            "type" : "VEC3"
        },
        {
            "bufferView" : 17,
            "componentType" : 5126,
            "count" : 5846,
            "type" : "VEC3"
        },
        {
            "bufferView" : 18,
            "componentType" : 5126,
            "count" : 5846,
            "type" : "VEC2"
        },
        {
            "bufferView" : 19,
            "componentType" : 5123,
            "count" : 15840,
            "type" : "SCALAR"
        },
        {
            "bufferView" : 20,
            "componentType" : 5126,
            "count" : 80,
            "max" : [
                414.0480651855469,
                252.8372344970703,
                870.9429931640625
            ],
            "min" : [
                -238.47549438476562,
                -79.47694396972656,
                -525.5569458007812
            ],
            "type" : "VEC3"
        },
        {
            "bufferView" : 21,
            "componentType" : 5126,
            "count" : 80,
            "type" : "VEC3"
        },
        {
            "bufferView" : 22,
            "componentType" : 5126,
            "count" : 80,
            "type" : "VEC2"
        },
        {
            "bufferView" : 23,
            "componentType" : 5123,
            "count" : 120,
            "type" : "SCALAR"
        }
    ],
    "bufferViews" : [
        {
            "buffer" : 0,
            "byteLength" : 17244,
            "byteOffset" : 0
        },
        {
            "buffer" : 0,
            "byteLength" : 17244,
            "byteOffset" : 17244
        },
        {
            "buffer" : 0,
            "byteLength" : 11496,
            "byteOffset" : 34488
        },
        {
            "buffer" : 0,
            "byteLength" : 5352,
            "byteOffset" : 45984
        },
        {
            "buffer" : 0,
            "byteLength" : 84828,
            "byteOffset" : 51336
        },
        {
            "buffer" : 0,
            "byteLength" : 84828,
            "byteOffset" : 136164
        },
        {
            "buffer" : 0,
            "byteLength" : 56552,
            "byteOffset" : 220992
        },
        {
            "buffer" : 0,
            "byteLength" : 42504,
            "byteOffset" : 277544
        },
        {
            "buffer" : 0,
            "byteLength" : 2304,
            "byteOffset" : 320048
        },
        {
            "buffer" : 0,
            "byteLength" : 2304,
            "byteOffset" : 322352
        },
        {
            "buffer" : 0,
            "byteLength" : 1536,
            "byteOffset" : 324656
        },
        {
            "buffer" : 0,
            "byteLength" : 576,
            "byteOffset" : 326192
        },
        {
            "buffer" : 0,
            "byteLength" : 14964,
            "byteOffset" : 326768
        },
        {
            "buffer" : 0,
            "byteLength" : 14964,
            "byteOffset" : 341732
        },
        {
            "buffer" : 0,
            "byteLength" : 9976,
            "byteOffset" : 356696
        },
        {
            "buffer" : 0,
            "byteLength" : 9576,
            "byteOffset" : 366672
        },
        {
            "buffer" : 0,
            "byteLength" : 70152,
            "byteOffset" : 376248
        },
        {
            "buffer" : 0,
            "byteLength" : 70152,
            "byteOffset" : 446400
        },
        {
            "buffer" : 0,
            "byteLength" : 46768,
            "byteOffset" : 516552
        },
        {
            "buffer" : 0,
            "byteLength" : 31680,
            "byteOffset" : 563320
        },
        {
            "buffer" : 0,
            "byteLength" : 960,
            "byteOffset" : 595000
        },
        {
            "buffer" : 0,
            "byteLength" : 960,
            "byteOffset" : 595960
        },
        {
            "buffer" : 0,
            "byteLength" : 640,
            "byteOffset" : 596920
        },
        {
            "buffer" : 0,
            "byteLength" : 240,
            "byteOffset" : 597560
        }
    ],
    "buffers" : [
        {
            "byteLength" : 597800,
            "uri" : "data:application/octet-stream;base64,"
        }
    ]
}
