{
    "asset" : {
        "generator" : "Khronos glTF Blender I/O v1.6.16",
        "version" : "2.0"
    },
    "extensionsUsed" : [
        "KHR_materials_transmission"
    ],
    "scene" : 0,
    "scenes" : [
        {
            "name" : "Scene",
            "nodes" : [
                0,
                1,
                2
            ]
        }
    ],
    "nodes" : [
        {
            "mesh" : 0,
            "name" : "Building",
            "scale" : [
                3,
                3,
                12
            ],
            "translation" : [
                0,
                3,
                0
            ]
        },
        {
            "name" : "Camera",
            "rotation" : [
                0.483536034822464,
                0.33687159419059753,
                -0.20870360732078552,
                0.7804827094078064
            ],
            "translation" : [
                7.358891487121582,
                4.958309173583984,
                6.925790786743164
            ]
        },
        {
            "mesh" : 1,
            "name" : "Text",
            "rotation" : [
                0.5000000596046448,
                0.4999999701976776,
                -0.4999999701976776,
                0.5
            ],
            "scale" : [
                0.2637965977191925,
                0.35607877373695374,
                0.2637965977191925
            ],
            "translation" : [
                4.340780258178711,
                2.4388744831085205,
                5.953915119171143
            ]
        }
    ],
    "materials" : [
        {
            "doubleSided" : true,
            "name" : "Red",
            "pbrMetallicRoughness" : {
                "baseColorFactor" : [
                    0.41156694293022156,
                    0.00398184172809124,
                    0.001023419783450663,
                    1
                ],
                "metallicFactor" : 0,
                "roughnessFactor" : 0.4000000059604645
            }
        },
        {
            "doubleSided" : true,
            "name" : "white",
            "pbrMetallicRoughness" : {
                "baseColorFactor" : [
                    0.6634597778320312,
                    0.6634597778320312,
                    0.6634597778320312,
                    1
                ],
                "metallicFactor" : 0,
                "roughnessFactor" : 0.5
            }
        },
        {
            "doubleSided" : true,
            "name" : "orange",
            "pbrMetallicRoughness" : {
                "baseColorFactor" : [
                    0.5372092127799988,
                    0.10864754021167755,
                    0.03371305763721466,
                    1
                ],
                "metallicFactor" : 0,
                "roughnessFactor" : 0.5
            }
        },
        {
            "doubleSided" : true,
            "name" : "grey",
            "pbrMetallicRoughness" : {
                "baseColorFactor" : [
                    0.05359087884426117,
                    0.05359087884426117,
                    0.05359087884426117,
                    1
                ],
                "metallicFactor" : 0,
                "roughnessFactor" : 0.5
            }
        },
        {
            "doubleSided" : true,
            "extensions" : {
                "KHR_materials_transmission" : {
                    "transmissionFactor" : 0.6776859760284424
                }
            },
            "name" : "GLASS",
            "pbrMetallicRoughness" : {
                "baseColorFactor" : [
                    0.369411438703537,
                    0.369411438703537,
                    0.369411438703537,
                    1
                ],
                "metallicFactor" : 0.6611570119857788,
                "roughnessFactor" : 0.06198348477482796
            }
        },
        {
            "doubleSided" : true,
            "name" : "shiny_grey",
            "pbrMetallicRoughness" : {
                "baseColorFactor" : [
                    0.23698806762695312,
                    0.23698806762695312,
                    0.23698806762695312,
                    1
                ],
                "metallicFactor" : 0.5206611752510071,
                "roughnessFactor" : 0.2851239740848541
            }
        },
        {
            "doubleSided" : true,
            "name" : "shiiny_black",
            "pbrMetallicRoughness" : {
                "baseColorFactor" : [
                    0.024807607755064964,
                    0.024807607755064964,
                    0.024807607755064964,
                    1
                ],
                "metallicFactor" : 0.5371900796890259,
                "roughnessFactor" : 0.004132211208343506
            }
        },
        {
            "doubleSided" : true,
            "name" : "wooden_brown",
            "pbrMetallicRoughness" : {
                "baseColorFactor" : [
                    0.5332767963409424,
                    0.3231431841850281,
                    0.14702734351158142,
                    1
                ],
                "metallicFactor" : 0,
                "roughnessFactor" : 0.5
            }
        }
    ],
    "meshes" : [
        {
            "name" : "Cube",
            "primitives" : [
                {
                    "attributes" : {
                        "POSITION" : 0,
                        "NORMAL" : 1,
                        "TEXCOORD_0" : 2
                    },
                    "indices" : 3,
                    "material" : 0
                },
                {
                    "attributes" : {
                        "POSITION" : 4,
                        "NORMAL" : 5,
                        "TEXCOORD_0" : 6
                    },
                    "indices" : 7,
                    "material" : 1
                },
                {
                    "attributes" : {
                        "POSITION" : 8,
                        "NORMAL" : 9,
                        "TEXCOORD_0" : 10
                    },
                    "indices" : 11,
                    "material" : 2
                },
                {
                    "attributes" : {
                        "POSITION" : 12,
                        "NORMAL" : 13,
                        "TEXCOORD_0" : 14
                    },
                    "indices" : 15,
                    "material" : 3
                },
                {
                    "attributes" : {
                        "POSITION" : 16,
                        "NORMAL" : 17,
                        "TEXCOORD_0" : 18
                    },
                    "indices" : 19,
                    "material" : 4
                },
                {
                    "attributes" : {
                        "POSITION" : 20,
                        "NORMAL" : 21,
                        "TEXCOORD_0" : 22
                    },
                    "indices" : 23,
                    "material" : 5
                },
                {
                    "attributes" : {
                        "POSITION" : 24,
                        "NORMAL" : 25,
                        "TEXCOORD_0" : 26
                    },
                    "indices" : 27,
                    "material" : 6
                },
                {
                    "attributes" : {
                        "POSITION" : 28,
                        "NORMAL" : 29,
                        "TEXCOORD_0" : 30
                    },
                    "indices" : 31,
                    "material" : 7
                }
            ]
        },
        {
            "name" : "Text.001",
            "primitives" : [
                {
                    "attributes" : {
                        "POSITION" : 32,
                        "NORMAL" : 33,
                        "TEXCOORD_0" : 34
                    },
                    "indices" : 35,
                    "material" : 1
                }
            ]
        }
    ],
    "accessors" : [
        {
            "bufferView" : 0,
            "componentType" : 5126,
            "count" : 628,
            "max" : [
                1.4807106256484985,
                2.0938401222229004,
                0.9944894313812256
            ],
            "min" : [
                -1.252181887626648,
                -1.0063273906707764,
                -2.091200828552246
            ],
            "type" : "VEC3"
        },
        {
            "bufferView" : 1,
            "componentType" : 5126,
            "count" : 628,
            "type" : "VEC3"
        },
        {
            "bufferView" : 2,
            "componentType" : 5126,
            "count" : 628,
            "type" : "VEC2"
        },
        {
            "bufferView" : 3,
            "componentType" : 5123,
            "count" : 1092,
            "type" : "SCALAR"
        },
        {
            "bufferView" : 4,
            "componentType" : 5126,
            "count" : 9078,
            "max" : [
                1.4699883460998535,
                2.162228584289551,
                1.011340856552124
            ],
            "min" : [
                -1.3315796852111816,
                -1.0089848041534424,
                -2.1714401245117188
            ],
            "type" : "VEC3"
        },
        {
            "bufferView" : 5,
            "componentType" : 5126,
            "count" : 9078,
            "type" : "VEC3"
        },
        {
            "bufferView" : 6,
            "componentType" : 5126,
            "count" : 9078,
            "type" : "VEC2"
        },
        {
            "bufferView" : 7,
            "componentType" : 5123,
            "count" : 19062,
            "type" : "SCALAR"
        },
        {
            "bufferView" : 8,
            "componentType" : 5126,
            "count" : 1222,
            "max" : [
                1.2969355583190918,
                2.162228584289551,
                1.0313656330108643
            ],
            "min" : [
                -1.3734568357467651,
                -1.0063273906707764,
                -2.0675384998321533
            ],
            "type" : "VEC3"
        },
        {
            "bufferView" : 9,
            "componentType" : 5126,
            "count" : 1222,
            "type" : "VEC3"
        },
        {
            "bufferView" : 10,
            "componentType" : 5126,
            "count" : 1222,
            "type" : "VEC2"
        },
        {
            "bufferView" : 11,
            "componentType" : 5123,
            "count" : 2391,
            "type" : "SCALAR"
        },
        {
            "bufferView" : 12,
            "componentType" : 5126,
            "count" : 12,
            "max" : [
                1.2339646816253662,
                1.8952449560165405,
                0.9794808626174927
            ],
            "min" : [
                -1,
                0.9319331645965576,
                -2.0564699172973633
            ],
            "type" : "VEC3"
        },
        {
            "bufferView" : 13,
            "componentType" : 5126,
            "count" : 12,
            "type" : "VEC3"
        },
        {
            "bufferView" : 14,
            "componentType" : 5126,
            "count" : 12,
            "type" : "VEC2"
        },
        {
            "bufferView" : 15,
            "componentType" : 5123,
            "count" : 18,
            "type" : "SCALAR"
        },
        {
            "bufferView" : 16,
            "componentType" : 5126,
            "count" : 392,
            "max" : [
                1.2807011604309082,
                0.949272096157074,
                1.004014492034912
            ],
            "min" : [
                -1.3210201263427734,
                -0.9658844470977783,
                -2.0600342750549316
            ],
            "type" : "VEC3"
        },
        {
            "bufferView" : 17,
            "componentType" : 5126,
            "count" : 392,
            "type" : "VEC3"
        },
        {
            "bufferView" : 18,
            "componentType" : 5126,
            "count" : 392,
            "type" : "VEC2"
        },
        {
            "bufferView" : 19,
            "componentType" : 5123,
            "count" : 588,
            "type" : "SCALAR"
        },
        {
            "bufferView" : 20,
            "componentType" : 5126,
            "count" : 160,
            "max" : [
                1.4056119918823242,
                -0.07900132983922958,
                0.999855101108551
            ],
            "min" : [
                1.1392147541046143,
                -1.0034784078598022,
                -0.00367659330368042
            ],
            "type" : "VEC3"
        },
        {
            "bufferView" : 21,
            "componentType" : 5126,
            "count" : 160,
            "type" : "VEC3"
        },
        {
            "bufferView" : 22,
            "componentType" : 5126,
            "count" : 160,
            "type" : "VEC2"
        },
        {
            "bufferView" : 23,
            "componentType" : 5123,
            "count" : 348,
            "type" : "SCALAR"
        },
        {
            "bufferView" : 24,
            "componentType" : 5126,
            "count" : 16,
            "max" : [
                1.171661138534546,
                -0.30833545327186584,
                0.4987735152244568
            ],
            "min" : [
                1.0676437616348267,
                -0.9981626272201538,
                0.25091552734375
            ],
            "type" : "VEC3"
        },
        {
            "bufferView" : 25,
            "componentType" : 5126,
            "count" : 16,
            "type" : "VEC3"
        },
        {
            "bufferView" : 26,
            "componentType" : 5126,
            "count" : 16,
            "type" : "VEC2"
        },
        {
            "bufferView" : 27,
            "componentType" : 5123,
            "count" : 30,
            "type" : "SCALAR"
        },
        {
            "bufferView" : 28,
            "componentType" : 5126,
            "count" : 175,
            "max" : [
                1.0676437616348267,
                -0.3484352231025696,
                0.4254058599472046
            ],
            "min" : [
                1.0606366395950317,
                -0.9921649098396301,
                0.3227190375328064
            ],
            "type" : "VEC3"
        },
        {
            "bufferView" : 29,
            "componentType" : 5126,
            "count" : 175,
            "type" : "VEC3"
        },
        {
            "bufferView" : 30,
            "componentType" : 5126,
            "count" : 175,
            "type" : "VEC2"
        },
        {
            "bufferView" : 31,
            "componentType" : 5123,
            "count" : 390,
            "type" : "SCALAR"
        },
        {
            "bufferView" : 32,
            "componentType" : 5126,
            "count" : 10736,
            "max" : [
                11.057000160217285,
                -0.23141615092754364,
                1.0089999437332153
            ],
            "min" : [
                0.04799995571374893,
                -0.4273899495601654,
                -0.6910000443458557
            ],
            "type" : "VEC3"
        },
        {
            "bufferView" : 33,
            "componentType" : 5126,
            "count" : 10736,
            "type" : "VEC3"
        },
        {
            "bufferView" : 34,
            "componentType" : 5126,
            "count" : 10736,
            "type" : "VEC2"
        },
        {
            "bufferView" : 35,
            "componentType" : 5123,
            "count" : 14916,
            "type" : "SCALAR"
        }
    ],
    "bufferViews" : [
        {
            "buffer" : 0,
            "byteLength" : 7536,
            "byteOffset" : 0
        },
        {
            "buffer" : 0,
            "byteLength" : 7536,
            "byteOffset" : 7536
        },
        {
            "buffer" : 0,
            "byteLength" : 5024,
            "byteOffset" : 15072
        },
        {
            "buffer" : 0,
            "byteLength" : 2184,
            "byteOffset" : 20096
        },
        {
            "buffer" : 0,
            "byteLength" : 108936,
            "byteOffset" : 22280
        },
        {
            "buffer" : 0,
            "byteLength" : 108936,
            "byteOffset" : 131216
        },
        {
            "buffer" : 0,
            "byteLength" : 72624,
            "byteOffset" : 240152
        },
        {
            "buffer" : 0,
            "byteLength" : 38124,
            "byteOffset" : 312776
        },
        {
            "buffer" : 0,
            "byteLength" : 14664,
            "byteOffset" : 350900
        },
        {
            "buffer" : 0,
            "byteLength" : 14664,
            "byteOffset" : 365564
        },
        {
            "buffer" : 0,
            "byteLength" : 9776,
            "byteOffset" : 380228
        },
        {
            "buffer" : 0,
            "byteLength" : 4782,
            "byteOffset" : 390004
        },
        {
            "buffer" : 0,
            "byteLength" : 144,
            "byteOffset" : 394788
        },
        {
            "buffer" : 0,
            "byteLength" : 144,
            "byteOffset" : 394932
        },
        {
            "buffer" : 0,
            "byteLength" : 96,
            "byteOffset" : 395076
        },
        {
            "buffer" : 0,
            "byteLength" : 36,
            "byteOffset" : 395172
        },
        {
            "buffer" : 0,
            "byteLength" : 4704,
            "byteOffset" : 395208
        },
        {
            "buffer" : 0,
            "byteLength" : 4704,
            "byteOffset" : 399912
        },
        {
            "buffer" : 0,
            "byteLength" : 3136,
            "byteOffset" : 404616
        },
        {
            "buffer" : 0,
            "byteLength" : 1176,
            "byteOffset" : 407752
        },
        {
            "buffer" : 0,
            "byteLength" : 1920,
            "byteOffset" : 408928
        },
        {
            "buffer" : 0,
            "byteLength" : 1920,
            "byteOffset" : 410848
        },
        {
            "buffer" : 0,
            "byteLength" : 1280,
            "byteOffset" : 412768
        },
        {
            "buffer" : 0,
            "byteLength" : 696,
            "byteOffset" : 414048
        },
        {
            "buffer" : 0,
            "byteLength" : 192,
            "byteOffset" : 414744
        },
        {
            "buffer" : 0,
            "byteLength" : 192,
            "byteOffset" : 414936
        },
        {
            "buffer" : 0,
            "byteLength" : 128,
            "byteOffset" : 415128
        },
        {
            "buffer" : 0,
            "byteLength" : 60,
            "byteOffset" : 415256
        },
        {
            "buffer" : 0,
            "byteLength" : 2100,
            "byteOffset" : 415316
        },
        {
            "buffer" : 0,
            "byteLength" : 2100,
            "byteOffset" : 417416
        },
        {
            "buffer" : 0,
            "byteLength" : 1400,
            "byteOffset" : 419516
        },
        {
            "buffer" : 0,
            "byteLength" : 780,
            "byteOffset" : 420916
        },
        {
            "buffer" : 0,
            "byteLength" : 128832,
            "byteOffset" : 421696
        },
        {
            "buffer" : 0,
            "byteLength" : 128832,
            "byteOffset" : 550528
        },
        {
            "buffer" : 0,
            "byteLength" : 85888,
            "byteOffset" : 679360
        },
        {
            "buffer" : 0,
            "byteLength" : 29832,
            "byteOffset" : 765248
        }
    ],
    "buffers" : [
        {
            "byteLength" : 795080,
            "uri" : "data:application/octet-stream;base64,"
        }
    ]
}
